<svg xmlns="http://www.w3.org/2000/svg" xmlns:xlink="http://www.w3.org/1999/xlink" version="1.1" id="Layer_1" x="0px" y="0px" viewBox="0 0 96 96" style="enable-background:new 0 0 96 96;" xml:space="preserve">
<style type="text/css">
	.st0{fill:#77B3D4;}
	.st1{fill:#6695B0;}
	.st2{fill:#FFFFFF;}
	.st3{fill:#4F5D73;}
</style>
<g id="XMLID_1_">
	<path id="XMLID_3_" class="st0" d="M48,15.5c17.9,0,32.5,14.6,32.5,32.5S65.9,80.5,48,80.5c-17.9,0-32.5-14.6-32.5-32.5   S30.1,15.5,48,15.5"/>
	<path id="XMLID_4_" class="st1" d="M48,29.7c-11.2,0-20.3,8.2-20.3,18.3c0,9.7,8.4,17.7,19.1,18.2c0.7,3.8,1.2,6.2,1.2,6.2   s5.1-3,9.7-8.3c6.3-3.1,10.6-9.1,10.6-16C68.3,37.9,59.2,29.7,48,29.7"/>
	<path id="XMLID_5_" class="st2" d="M65.3,44.7C65.3,60,48,70.3,48,70.3s-9.5-42.7,0-42.7S65.3,35.3,65.3,44.7z"/>
	<ellipse id="XMLID_6_" class="st2" cx="48" cy="46" rx="20.3" ry="18.3"/>
	<circle id="XMLID_7_" class="st3" cx="48" cy="46" r="2"/>
	<circle id="XMLID_8_" class="st3" cx="56.1" cy="46" r="2"/>
	<circle id="XMLID_9_" class="st3" cx="39.9" cy="46" r="2"/>
</g>
</svg>